<?xml version="1.0" encoding="iso-8859-1"?>
<!DOCTYPE svg PUBLIC "-//W3C//DTD SVG 1.1//EN" "http://www.w3.org/Graphics/SVG/1.1/DTD/svg11.dtd">
<svg version="1.1" xmlns="http://www.w3.org/2000/svg" xmlns:xlink="http://www.w3.org/1999/xlink" x="0px" y="0px"
 viewBox="0 0 640 74" style="enable-background:new 0 0 640 74;" xml:space="preserve">
<path style="fill:#FFFFFF;" d="M103.424,32.176c0,3.36-0.355,6.291-1.064,8.792c-0.709,2.502-1.662,4.564-2.856,6.188
	c-1.195,1.623-2.614,2.838-4.256,3.64C93.605,51.6,91.869,52,90.04,52h-7.056V12.352h7.112c1.829,0,3.556,0.401,5.18,1.204
	c1.624,0.803,3.042,2.025,4.256,3.668c1.212,1.643,2.165,3.706,2.856,6.188C103.079,25.895,103.424,28.816,103.424,32.176z
	 M84.216,13.472V50.88h5.656c1.717,0,3.322-0.372,4.816-1.12c1.493-0.746,2.8-1.885,3.92-3.416c1.12-1.53,1.997-3.472,2.632-5.824
	c0.634-2.352,0.952-5.133,0.952-8.344c0-3.21-0.317-5.992-0.952-8.344c-0.635-2.352-1.512-4.293-2.632-5.824
	c-1.12-1.53-2.427-2.668-3.92-3.416c-1.494-0.746-3.099-1.12-4.816-1.12H84.216z"/>
<path style="fill:#FFFFFF;" d="M114.007,64.236c-0.747,0.803-1.717,1.203-2.912,1.203c-0.71,0-1.326-0.131-1.848-0.392l0.168-1.063
	c0.187,0.074,0.438,0.148,0.756,0.224c0.317,0.074,0.625,0.112,0.924,0.112c1.157,0,1.988-0.486,2.492-1.457
	s0.942-2.239,1.316-3.807l1.512-6.44l-7.28-27.664h1.288l6.608,25.76h0.112l6.384-25.76h1.232l-8.904,35.224
	C115.37,62.08,114.754,63.433,114.007,64.236z"/>
<path style="fill:#FFFFFF;" d="M131.144,31.784c0.41-2.352,1.232-4.228,2.464-5.628c1.232-1.4,2.781-2.1,4.648-2.1
	c1.456,0,2.604,0.327,3.444,0.98c0.84,0.653,1.484,1.475,1.932,2.464c0.448,0.99,0.737,2.072,0.868,3.248
	c0.13,1.176,0.196,2.287,0.196,3.332V52h-1.232V34.08c0-0.971-0.056-1.979-0.168-3.024c-0.112-1.045-0.355-2.006-0.728-2.884
	c-0.374-0.876-0.906-1.596-1.596-2.156c-0.691-0.56-1.596-0.84-2.716-0.84c-1.195,0-2.24,0.346-3.136,1.036
	c-0.896,0.691-1.644,1.578-2.24,2.66c-0.598,1.083-1.045,2.287-1.344,3.612c-0.299,1.326-0.448,2.604-0.448,3.836V52h-1.232V31.784
	c0-0.448-0.01-0.98-0.028-1.596c-0.02-0.616-0.038-1.25-0.056-1.904c-0.02-0.653-0.038-1.278-0.056-1.876
	c-0.019-0.597-0.047-1.083-0.084-1.456h1.232c0.037,0.374,0.065,0.859,0.084,1.456c0.019,0.598,0.037,1.223,0.056,1.876
	c0.019,0.653,0.028,1.288,0.028,1.904s0,1.148,0,1.596H131.144z"/>
<path style="fill:#FFFFFF;" d="M165.079,45.84c0,1.046,0.037,2.147,0.112,3.305c0.074,1.157,0.148,2.109,0.224,2.855h-1.176
	c-0.038-0.373-0.075-0.849-0.112-1.428c-0.038-0.578-0.066-1.176-0.084-1.793c-0.02-0.615-0.038-1.203-0.056-1.764
	c-0.019-0.56-0.028-1.045-0.028-1.455h-0.112c-0.523,2.463-1.381,4.275-2.576,5.432c-1.195,1.156-2.614,1.736-4.256,1.736
	c-0.747,0-1.484-0.15-2.212-0.449c-0.728-0.298-1.391-0.773-1.988-1.428c-0.598-0.652-1.074-1.465-1.428-2.436
	c-0.355-0.971-0.532-2.128-0.532-3.473c0-1.903,0.336-3.434,1.008-4.592c0.672-1.156,1.512-2.062,2.52-2.715
	c1.008-0.653,2.09-1.083,3.248-1.289c1.157-0.205,2.202-0.308,3.136-0.308h3.08v-2.128c0-3.024-0.523-5.236-1.568-6.636
	c-1.045-1.4-2.446-2.1-4.2-2.1c-1.083,0-2.082,0.29-2.996,0.868c-0.916,0.579-1.69,1.354-2.324,2.324l-0.84-0.784
	c0.672-1.083,1.586-1.941,2.744-2.576c1.157-0.634,2.296-0.952,3.416-0.952c2.203,0,3.92,0.803,5.152,2.408
	c1.232,1.606,1.848,4.107,1.848,7.504V45.84z M163.847,37.16h-2.744c-1.008,0-2.044,0.094-3.108,0.279
	c-1.064,0.188-2.035,0.561-2.912,1.121c-0.878,0.56-1.596,1.344-2.156,2.352s-0.84,2.352-0.84,4.031
	c0,1.232,0.158,2.269,0.476,3.108c0.316,0.841,0.718,1.522,1.204,2.044c0.485,0.523,1.027,0.906,1.624,1.148
	c0.597,0.243,1.176,0.363,1.736,0.363c1.306,0,2.389-0.363,3.248-1.092c0.858-0.728,1.549-1.67,2.072-2.828
	c0.522-1.156,0.886-2.436,1.092-3.836c0.205-1.399,0.308-2.752,0.308-4.06V37.16z"/>
<path style="fill:#FFFFFF;" d="M193.415,24.056c1.456,0,2.604,0.327,3.444,0.98c0.84,0.653,1.484,1.475,1.932,2.464
	c0.448,0.99,0.737,2.072,0.868,3.248c0.13,1.176,0.196,2.287,0.196,3.332V52h-1.232V34.08c0-0.971-0.056-1.979-0.168-3.024
	c-0.112-1.045-0.355-2.006-0.728-2.884c-0.374-0.876-0.906-1.596-1.596-2.156c-0.691-0.56-1.596-0.84-2.716-0.84
	c-1.195,0-2.231,0.346-3.108,1.036c-0.878,0.691-1.596,1.578-2.156,2.66c-0.56,1.083-0.98,2.287-1.26,3.612
	c-0.28,1.326-0.42,2.604-0.42,3.836V52h-1.232V34.08c0-1.008-0.056-2.044-0.168-3.108c-0.112-1.064-0.336-2.025-0.672-2.884
	c-0.336-0.858-0.831-1.558-1.484-2.1c-0.654-0.541-1.521-0.812-2.604-0.812c-1.195,0-2.24,0.346-3.136,1.036
	c-0.896,0.691-1.644,1.578-2.24,2.66c-0.598,1.083-1.045,2.287-1.344,3.612c-0.299,1.326-0.448,2.604-0.448,3.836V52h-1.232V31.784
	c0-0.448-0.01-0.98-0.028-1.596c-0.02-0.616-0.038-1.25-0.056-1.904c-0.02-0.653-0.038-1.278-0.056-1.876
	c-0.019-0.597-0.047-1.083-0.084-1.456h1.232c0.037,0.374,0.065,0.859,0.084,1.456c0.019,0.598,0.037,1.223,0.056,1.876
	c0.019,0.653,0.028,1.288,0.028,1.904s0,1.148,0,1.596h0.112c0.41-2.352,1.232-4.228,2.464-5.628c1.232-1.4,2.781-2.1,4.648-2.1
	c1.083,0,1.988,0.206,2.716,0.616c0.728,0.411,1.316,0.971,1.764,1.68c0.448,0.709,0.765,1.55,0.952,2.52
	c0.186,0.971,0.316,1.998,0.392,3.08h0.112c0.149-1.083,0.429-2.109,0.84-3.08c0.411-0.97,0.924-1.811,1.54-2.52
	c0.616-0.709,1.325-1.269,2.128-1.68C191.557,24.262,192.443,24.056,193.415,24.056z"/>
<path style="fill:#FFFFFF;" d="M207.526,16.552c-0.336,0-0.635-0.13-0.896-0.392c-0.262-0.261-0.392-0.635-0.392-1.12
	c0-0.411,0.13-0.756,0.392-1.036c0.261-0.28,0.56-0.42,0.896-0.42s0.634,0.14,0.896,0.42c0.261,0.28,0.392,0.625,0.392,1.036
	c0,0.485-0.14,0.859-0.42,1.12C208.114,16.421,207.825,16.552,207.526,16.552z M206.91,52V24.952h1.232V52H206.91z"/>
<path style="fill:#FFFFFF;" d="M228.75,49.424c-1.344,2.315-3.267,3.473-5.768,3.473c-1.308,0-2.474-0.355-3.5-1.064
	c-1.027-0.709-1.896-1.698-2.604-2.969c-0.71-1.268-1.251-2.789-1.624-4.563c-0.374-1.772-0.56-3.704-0.56-5.796
	c0-2.128,0.177-4.068,0.532-5.824c0.354-1.754,0.887-3.276,1.596-4.564c0.708-1.288,1.586-2.287,2.632-2.996
	c1.045-0.709,2.24-1.064,3.584-1.064c1.269,0,2.38,0.28,3.332,0.84c0.952,0.56,1.689,1.344,2.212,2.352l-0.84,0.784
	c-0.485-0.989-1.148-1.731-1.988-2.226c-0.84-0.495-1.764-0.742-2.772-0.742c-1.195,0-2.24,0.347-3.136,1.039
	c-0.896,0.692-1.634,1.637-2.212,2.834c-0.579,1.197-1.008,2.609-1.288,4.237c-0.28,1.627-0.42,3.395-0.42,5.303
	c0,1.87,0.14,3.61,0.42,5.219c0.28,1.608,0.709,3.012,1.288,4.209c0.578,1.197,1.316,2.142,2.212,2.834
	c0.896,0.691,1.941,1.037,3.136,1.037c1.082,0,2.062-0.288,2.94-0.867c0.876-0.578,1.577-1.372,2.1-2.381L228.75,49.424z"/>
<path style="fill:#FFFFFF;" d="M255.181,52l-9.24-19.712L236.645,52h-1.344l9.912-20.776l-8.96-18.872h1.288l8.4,17.696
	l8.344-17.696h1.344l-8.96,18.872L256.581,52H255.181z"/>
<path style="fill:#FFFFFF;" d="M262.713,30.188c-0.02-0.616-0.038-1.25-0.056-1.904c-0.02-0.653-0.038-1.278-0.056-1.876
	c-0.019-0.597-0.047-1.083-0.084-1.456h1.232c0.037,0.374,0.065,0.85,0.084,1.428c0.019,0.58,0.037,1.195,0.056,1.848
	c0.019,0.654,0.028,1.279,0.028,1.876c0,0.598,0,1.12,0,1.568h0.168c0.522-2.65,1.334-4.526,2.436-5.628
	c1.101-1.101,2.324-1.652,3.668-1.652c0.298,0,0.522,0.019,0.672,0.056v1.12c-0.075-0.037-0.188-0.056-0.336-0.056
	c-0.149,0-0.261,0-0.336,0c-1.045,0-1.96,0.374-2.744,1.12c-0.784,0.748-1.428,1.718-1.932,2.912
	c-0.504,1.195-0.887,2.53-1.148,4.004c-0.262,1.476-0.392,2.96-0.392,4.452v14h-1.232V31.784
	C262.741,31.336,262.731,30.804,262.713,30.188z"/>
<path style="fill:#FFFFFF;" d="M288.836,45.84c0,1.046,0.037,2.147,0.112,3.305c0.074,1.157,0.148,2.109,0.224,2.855h-1.176
	c-0.038-0.373-0.075-0.849-0.112-1.428c-0.038-0.578-0.066-1.176-0.084-1.793c-0.02-0.615-0.038-1.203-0.056-1.764
	c-0.019-0.56-0.028-1.045-0.028-1.455h-0.112c-0.523,2.463-1.381,4.275-2.576,5.432c-1.195,1.156-2.614,1.736-4.256,1.736
	c-0.747,0-1.484-0.15-2.212-0.449c-0.728-0.298-1.391-0.773-1.988-1.428c-0.598-0.652-1.074-1.465-1.428-2.436
	c-0.355-0.971-0.532-2.128-0.532-3.473c0-1.903,0.336-3.434,1.008-4.592c0.672-1.156,1.512-2.062,2.52-2.715
	c1.008-0.653,2.09-1.083,3.248-1.289c1.157-0.205,2.202-0.308,3.136-0.308h3.08v-2.128c0-3.024-0.523-5.236-1.568-6.636
	c-1.045-1.4-2.446-2.1-4.2-2.1c-1.083,0-2.082,0.29-2.996,0.868c-0.916,0.579-1.69,1.354-2.324,2.324l-0.84-0.784
	c0.672-1.083,1.586-1.941,2.744-2.576c1.157-0.634,2.296-0.952,3.416-0.952c2.203,0,3.92,0.803,5.152,2.408
	c1.232,1.606,1.848,4.107,1.848,7.504V45.84z M287.604,37.16h-2.744c-1.008,0-2.044,0.094-3.108,0.279
	c-1.064,0.188-2.035,0.561-2.912,1.121c-0.878,0.56-1.596,1.344-2.156,2.352s-0.84,2.352-0.84,4.031
	c0,1.232,0.158,2.269,0.476,3.108c0.316,0.841,0.718,1.522,1.204,2.044c0.485,0.523,1.027,0.906,1.624,1.148
	c0.597,0.243,1.176,0.363,1.736,0.363c1.306,0,2.389-0.363,3.248-1.092c0.858-0.728,1.549-1.67,2.072-2.828
	c0.522-1.156,0.886-2.436,1.092-3.836c0.205-1.399,0.308-2.752,0.308-4.06V37.16z"/>
<path style="fill:#FFFFFF;" d="M298.131,64.236c-0.747,0.803-1.717,1.203-2.912,1.203c-0.71,0-1.326-0.131-1.848-0.392l0.168-1.063
	c0.187,0.074,0.438,0.148,0.756,0.224c0.317,0.074,0.625,0.112,0.924,0.112c1.157,0,1.988-0.486,2.492-1.457
	s0.942-2.239,1.316-3.807l1.512-6.44l-7.28-27.664h1.288l6.608,25.76h0.112l6.384-25.76h1.232l-8.904,35.224
	C299.494,62.08,298.878,63.433,298.131,64.236z"/>
</svg>
